<?xml version="1.0" encoding="utf-8"?>
<!DOCTYPE svg PUBLIC "-//W3C//DTD SVG 1.1//EN" "http://www.w3.org/Graphics/SVG/1.1/DTD/svg11.dtd">
<svg version="1.1" id="Layer_1" xmlns="http://www.w3.org/2000/svg" xmlns:xlink="http://www.w3.org/1999/xlink" x="0px" y="0px"
	 width="1215px" height="503.999px" viewBox="0 0 1215 503.999" enable-background="new 0 0 1215 503.999" xml:space="preserve">
<path fill="none" stroke="#000000" stroke-width="3" stroke-linecap="round" stroke-linejoin="round" stroke-miterlimit="10" d="
	M508.6,163.6l-26.5,25.9 M432,175.8l50.1,13.7 M482.1,92.3v97.2 M432,78.7v97.1 M508.6,163.6l123.9,33.7 M508.6,66.5v97.1
	 M482.1,92.3L432,78.7 M508.6,66.5l-26.5,25.8 M659,107.3L508.6,66.5 M659,107.3l-26.5,25.9 M785.7,108.8L484.9,27 M432,78.7
	L484.9,27 M785.7,206v-97.2 M732.8,160.4l52.9-51.6 M732.8,257.6l52.9-51.6 M632.5,230.4v-97.2 M632.5,230.4l100.3,27.2
	 M732.8,257.6v-97.2 M732.8,160.4l-100.3-27.2"/>
<path fill="none" stroke="#000000" stroke-width="3" stroke-linecap="round" stroke-linejoin="round" stroke-miterlimit="10" d="
	M904.6,163.6l-26.5,25.9 M828,175.8l50.1,13.7 M878.1,92.3v97.2 M828,78.6v97.2 M904.6,163.6l174.1,47.4 M904.6,66.4v97.2
	 M878.1,92.3L828,78.6 M904.6,66.4l-26.5,25.9 M1105.1,121L904.6,66.4 M1105.1,121l-26.4,25.8 M1181.699,108.8L880.899,27 M828,78.6
	L880.899,27 M1181.699,205.899v-97.1 M1128.8,160.4l52.899-51.6 M1128.8,257.6l52.899-51.7 M1078.699,244v-97.2 M1078.699,244
	l50.101,13.6 M1128.8,257.6v-97.2 M1128.8,160.4l-50.101-13.6"/>
<path fill="none" stroke="#000000" stroke-width="3" stroke-linecap="round" stroke-linejoin="round" stroke-miterlimit="10" d="
	M239.399,116.5l23.7,6.4 M112.6,163.6L86.2,189.5 M36,175.8L86.2,189.5 M86.2,92.3v97.2 M36,78.7V175.8 M239.399,67.9v48.6
	 M239.399,116.5l-26.5,25.8 M239.399,67.9l-26.5,25.8 M239.399,67.9L89,27 M36,78.7L89,27 M86.2,92.3L36,78.7 M112.6,66.5L86.2,92.3
	 M112.6,163.6L286.7,211 M212.9,93.7V142.3 M212.9,93.7L112.6,66.5 M112.6,66.5v97.1 M263.1,155.9v-48.6 M212.9,142.3l50.2,13.6
	 M389.8,108.8L289.5,81.5 M289.5,81.5l-26.4,25.8 M313.2,121L263.1,107.3 M313.2,121l-26.5,25.8 M389.8,206v-97.2 M336.899,160.4
	l52.9-51.6 M336.899,257.6L389.8,206 M286.7,244V146.8 M286.7,244l50.199,13.601 M336.899,257.6v-97.2 M336.899,160.4L286.7,146.8"
	/>
<path fill="none" stroke="#000000" stroke-width="3" stroke-linecap="round" stroke-linejoin="round" stroke-miterlimit="10" d="
	M828,391.8l50.2,13.699 M828,294.6v97.2 M904.6,379.6L878.2,405.5 M878.2,308.3v97.2 M954.801,344.7l-26.5,25.8 M928.301,419.1
	l100.3,27.2 M928.301,419.1v-48.6 M928.301,370.5l100.3,27.2 M1055.101,420.5l-26.5,25.8 M1028.601,397.7v48.6 M1055.101,371.9
	l-26.5,25.8 M1055.101,420.5l23.6,6.5 M904.6,379.6l23.701,6.5 M954.801,344.7l100.3,27.2 M1055.101,371.9v48.6 M904.6,282.4v97.2
	 M1181.8,421.9v-97.1 M1128.9,473.601L1181.8,421.9 M878.2,308.3L828,294.6 M904.6,282.4L878.2,308.3 M1105.2,337L904.6,282.4
	 M1105.2,337l-26.5,25.8 M1128.9,376.4l52.899-51.6 M1181.8,324.8L881,243 M828,294.6l53-51.6 M1078.7,459.999V362.8
	 M1078.7,459.999l50.2,13.602 M1128.9,473.601V376.4 M1128.9,376.4l-50.2-13.6"/>
<path fill="none" stroke="#000000" stroke-width="3" stroke-linecap="round" stroke-linejoin="round" stroke-miterlimit="10" d="
	M189.2,270.3v48.5 M162.8,296.1v48.6 M162.8,393.3l-26.5,25.8 M162.8,344.7l-26.5,25.8 M112.6,331l50.2,13.7 M162.8,393.3l73.8,20
	 M162.8,344.7v48.6 M189.2,318.8l73.9,20.1 M162.8,344.7l100.3,27.2 M189.2,318.8l-26.4,25.9 M112.6,331l-26.4,25.9 M112.6,282.5
	V331 M36,391.8l100.3,27.3 M136.3,370.5v48.6 M86.2,356.9l50.1,13.6 M86.2,308.3v48.6 M36,294.6v97.2 M189.2,270.3L89,243
	 M162.8,296.1l-50.2-13.6 M189.2,270.3l-26.4,25.8 M36,294.6L89,243 M86.2,308.3L36,294.6 M112.6,282.5l-26.4,25.8 M263.1,371.9
	v-48.6 M263.1,371.9l23.7,6.5 M263.1,371.9l-26.5,25.9 M286.8,411.4v-48.6 M236.6,397.8l50.2,13.6 M236.6,446.3v-48.5 M236.6,446.3
	l100.3,27.301 M389.8,422v-97.2 M336.9,473.601V376.4 M336.9,473.601l52.9-51.6 M389.8,324.8L289.5,297.5 M289.5,297.5L263.1,323.3
	 M313.2,337l-50.1-13.7 M313.2,337L286.8,362.8 M336.9,376.4l-50.1-13.6 M336.9,376.4l52.9-51.6"/>
<path fill="none" stroke="#000000" stroke-width="3" stroke-linecap="round" stroke-linejoin="round" stroke-miterlimit="10" d="
	M585.2,270.3v48.6 M508.6,379.6l23.7,6.5 M558.8,296.1v48.6 M432,391.8l50.2,13.7 M432,294.7v97.1 M508.6,379.6l-26.4,25.9
	 M482.2,308.3v97.2 M508.6,282.5v97.1 M582.5,432.7l26.399-25.8 M532.3,419.1l50.2,13.601 M582.5,432.7V384.1 M532.3,370.5v48.6
	 M585.2,270.3L485,243 M558.8,296.1l-50.2-13.6 M585.2,270.3l-26.4,25.8 M432,294.7l53-51.7 M482.2,308.3L432,294.7 M508.6,282.5
	l-26.4,25.8 M585.2,318.9l-26.4,25.8 M532.3,370.5l26.5-25.8 M582.5,384.1l-50.2-13.6 M582.5,384.1l26.399-25.8 M585.2,318.9
	l73.9,20 M608.899,406.9L682.7,427 M608.899,358.3l50.2,13.601 M608.899,406.9V358.3 M659.1,371.9V323.3 M785.8,422v-97.2
	 M732.899,473.6l52.9-51.6 M785.8,324.8l-100.3-27.3 M685.5,297.5l-26.4,25.8 M709.2,337L659.1,323.3 M709.2,337l-26.5,25.8
	 M732.899,376.4l52.9-51.601 M682.7,460v-97.2 M682.7,460l50.199,13.6 M732.899,473.6V376.4 M732.899,376.4L682.7,362.8"/>
</svg>
